<svg width="119" height="119" viewBox="0 0 119 119" fill="none" xmlns="http://www.w3.org/2000/svg">
<circle cx="59.405" cy="59.0586" r="59.0586" fill="#E8B8E5"/>
<path d="M42.0973 69.9408V49.4741H43.2083V52.6938C43.3395 52.5512 43.4608 52.3996 43.5711 52.2403C44.0251 51.2979 44.7383 50.5045 45.6271 49.953C46.5159 49.4015 47.5436 49.1148 48.5895 49.1265C51.1214 49.0509 53.1771 49.9881 54.3864 52.2403C55.1558 53.6394 55.5793 55.2024 55.6213 56.7986C55.6634 58.3948 55.3229 59.9778 54.6283 61.4156C53.5021 63.9399 50.7208 65.1945 47.743 64.7335C46.8164 64.6545 45.9242 64.3448 45.148 63.8326C44.3717 63.3204 43.7361 62.6219 43.299 61.801V69.9408H42.0973ZM43.2083 56.7146C43.3066 57.7122 43.3444 58.4226 43.4577 59.118C43.8961 61.8539 45.5135 63.4789 48.0529 63.7736C49.2453 63.9696 50.4688 63.7461 51.5148 63.141C52.5608 62.536 53.3647 61.587 53.7893 60.4557C54.2773 59.2921 54.5122 58.0379 54.4783 56.7766C54.4444 55.5152 54.1426 54.2755 53.5928 53.1397C53.1395 52.1257 52.3686 51.2868 51.3964 50.7496C50.4243 50.2124 49.3038 50.0061 48.2041 50.1619C47.1716 50.2367 46.188 50.6314 45.3902 51.291C44.5924 51.9507 44.02 52.8425 43.7525 53.8426C43.5158 54.7886 43.3341 55.7475 43.2083 56.7146V56.7146Z" fill="#2C1535"/>
<path d="M78.2844 59.4958C78.116 60.9368 77.4301 62.2677 76.3541 63.2408C75.278 64.214 73.8852 64.7632 72.4346 64.7864C67.7789 65.0206 65.5947 61.9295 65.2471 58.3622C65.0058 56.4249 65.3203 54.459 66.154 52.6938C66.7346 51.4829 67.6854 50.4882 68.8689 49.8537C70.0524 49.2192 71.4071 48.9777 72.7369 49.1643C74.0012 49.2714 75.1997 49.7736 76.1627 50.5996C77.1258 51.4257 77.8046 52.5338 78.103 53.767C78.3395 54.8902 78.5136 56.0256 78.6245 57.168H66.3883C66.1616 60.4028 67.8999 63.0027 70.3637 63.63C73.4322 64.3858 76.0548 63.0556 77.0071 60.1383C77.2187 59.39 77.6042 59.2842 78.2844 59.4958ZM66.3883 56.1326H77.3245C77.2565 52.6862 75.1101 50.1921 72.2003 50.1543C68.9051 50.1014 66.5319 52.5048 66.3883 56.1326Z" fill="#2C1535"/>
<path d="M80.5366 59.5714H81.6098C81.6495 60.3611 81.9061 61.1246 82.3514 61.778C82.7968 62.4313 83.4136 62.9492 84.1342 63.2748C85.039 63.682 86.024 63.8798 87.0159 63.8537C88.0077 63.8275 88.9809 63.578 89.863 63.1236C90.3437 62.9069 90.7464 62.548 91.0167 62.0952C91.287 61.6425 91.4119 61.1177 91.3746 60.5918C91.4022 60.0845 91.2637 59.582 90.98 59.1606C90.6963 58.7391 90.283 58.4217 89.8026 58.2564C88.6235 57.818 87.3689 57.5762 86.1672 57.1907C84.9169 56.8347 83.6943 56.3875 82.5092 55.853C80.5744 54.9082 80.4535 51.2276 82.6453 50.0637C83.7676 49.4303 85.0306 49.0882 86.3191 49.0684C87.6076 49.0486 88.8805 49.3518 90.0217 49.9503C90.7131 50.3324 91.2715 50.9161 91.6226 51.6237C91.9737 52.3312 92.1007 53.129 91.9868 53.9106H91.0647C91.0647 53.8653 90.9816 53.8275 90.9816 53.7821C90.8682 50.8421 88.4044 49.9352 85.7591 50.1921C84.9694 50.2895 84.2025 50.5222 83.4918 50.8799C83.0648 51.0752 82.7089 51.3982 82.4734 51.8043C82.2378 52.2104 82.1341 52.6797 82.1767 53.1473C82.178 53.6151 82.324 54.071 82.5946 54.4526C82.8652 54.8341 83.2472 55.1226 83.6883 55.2786C84.8522 55.7018 86.069 55.9739 87.2631 56.3064C88.223 56.571 89.2206 56.7448 90.1502 57.0622C90.8064 57.2773 91.3817 57.6866 91.8001 58.2359C92.2185 58.7852 92.4602 59.4486 92.4932 60.1383C92.6053 60.894 92.4766 61.6658 92.1252 62.3441C91.7738 63.0225 91.2176 63.5729 90.5357 63.9172C88.0114 65.3457 83.8545 64.9678 82.0029 63.1614C81.5336 62.6895 81.1624 62.1292 80.9107 61.5131C80.6591 60.8969 80.5319 60.237 80.5366 59.5714Z" fill="#2C1535"/>
<path d="M106.097 53.9106H105.092C105.092 53.7745 105.039 53.6536 105.024 53.5402C105.008 52.7867 104.733 52.0617 104.246 51.4866C103.759 50.9115 103.089 50.5212 102.349 50.381C100.951 49.9802 99.4609 50.0519 98.1087 50.5851C97.5742 50.7384 97.1036 51.0604 96.7671 51.5031C96.4307 51.9458 96.2464 52.4854 96.2419 53.0414C96.2231 53.5875 96.3933 54.1233 96.7237 54.5584C97.0542 54.9935 97.5247 55.3012 98.0558 55.4297C99.5673 55.8983 101.117 56.1855 102.651 56.6087C103.148 56.728 103.638 56.8769 104.117 57.0546C104.833 57.3108 105.455 57.7769 105.902 58.3922C106.349 59.0074 106.599 59.7431 106.622 60.5031C106.644 61.2632 106.436 62.0122 106.025 62.6523C105.615 63.2924 105.021 63.7938 104.321 64.091C103.255 64.5753 102.099 64.8315 100.927 64.8433C99.756 64.855 98.5952 64.6219 97.5191 64.159C96.6343 63.7774 95.8876 63.1338 95.3795 62.315C94.8714 61.4961 94.6264 60.5413 94.6774 59.579H95.1006H95.6599C95.8417 60.4559 96.2345 61.2753 96.8043 61.9662C97.374 62.6571 98.1037 63.1988 98.93 63.5442C99.7562 63.8896 100.654 64.0283 101.546 63.9485C102.438 63.8686 103.297 63.5725 104.049 63.0858C104.507 62.8479 104.887 62.4836 105.144 62.0362C105.402 61.5888 105.525 61.077 105.5 60.5615C105.523 60.0539 105.38 59.5527 105.092 59.134C104.804 58.7153 104.388 58.4018 103.906 58.2412C102.727 57.8029 101.472 57.5686 100.27 57.1831C99.0127 56.8325 97.7825 56.3905 96.5895 55.8605C94.7001 54.9309 94.5489 51.2804 96.7029 50.1165C97.8391 49.4567 99.1268 49.1022 100.441 49.0876C101.754 49.0731 103.05 49.3989 104.2 50.0334C104.858 50.4262 105.388 51.0018 105.725 51.6902C106.062 52.3785 106.191 53.15 106.097 53.9106V53.9106Z" fill="#2C1535"/>
<path d="M40.2608 64.416C39.8651 64.5659 39.4282 64.5656 39.0327 64.4152C38.6372 64.2648 38.3105 63.9747 38.1143 63.5998C36.8824 61.7557 35.522 59.9947 34.2145 58.1959L33.6476 57.4401C32.0907 59.5261 30.5338 61.5289 29.1129 63.6073C28.9278 63.9657 28.6187 64.2445 28.2433 64.3918C27.8679 64.5392 27.4517 64.5451 27.0723 64.4085L32.9145 56.571L27.4804 49.4893C27.8716 49.348 28.2995 49.3461 28.6919 49.4838C29.0844 49.6215 29.4173 49.8904 29.6344 50.245C30.8966 52.0892 32.2948 53.8501 33.6854 55.7169C35.0836 53.8653 36.4667 52.0967 37.7591 50.2677C37.9453 49.9152 38.2545 49.6435 38.6279 49.5041C39.0014 49.3648 39.4131 49.3675 39.7846 49.5119L37.676 52.3083C36.7312 53.5554 35.8016 54.81 34.8191 56.0268C34.7399 56.0977 34.6766 56.1845 34.6332 56.2815C34.5899 56.3785 34.5675 56.4836 34.5675 56.5899C34.5675 56.6961 34.5899 56.8012 34.6332 56.8982C34.6766 56.9953 34.7399 57.082 34.8191 57.1529C36.6254 59.5488 38.4166 61.9522 40.2608 64.416V64.416Z" fill="#2C1535"/>
<path d="M65.0657 49.4136V50.4717C64.3013 50.4216 63.5348 50.5323 62.8159 50.7967C62.0969 51.0611 61.4413 51.4733 60.8915 52.0067C60.3417 52.5402 59.9099 53.183 59.6239 53.8936C59.3378 54.6043 59.204 55.367 59.231 56.1326C59.231 58.6216 59.231 61.1107 59.231 63.5997C59.231 63.8643 59.231 64.1288 59.231 64.4462H58.1502V49.4741H59.2083V52.5426C60.5158 50.3055 62.5338 49.4741 65.0657 49.4136V49.4136Z" fill="#2C1535"/>
<path d="M13.0751 56.4727C13.2338 55.7169 13.3321 54.8931 13.5513 54.1222C14.8588 49.4741 20.1871 47.5393 23.8526 50.4188C25.9991 52.1043 26.5357 54.4925 26.4299 57.1831H14.3373C14.1408 61.9899 17.6099 64.8922 22.0463 63.4108C22.766 63.1534 23.4102 62.7208 23.9208 62.1521C24.4315 61.5834 24.7925 60.8965 24.9712 60.1534C25.2055 59.3976 25.5834 59.2691 26.3014 59.4883C26.1831 60.4084 25.8578 61.2897 25.3499 62.066C24.842 62.8422 24.1647 63.4933 23.3689 63.9701C22.0542 64.6891 20.5457 64.9739 19.0593 64.7839C17.5729 64.5938 16.1847 63.9386 15.0931 62.912C14.0132 61.6978 13.3602 60.1636 13.2338 58.5436C13.2338 58.2866 13.1356 58.0296 13.0827 57.7878C13.0777 57.3393 13.0751 56.901 13.0751 56.4727ZM14.3524 56.1477H25.2886C25.2206 52.6635 23.0213 50.1921 20.0888 50.1694C16.8238 50.1241 14.4885 52.5426 14.3449 56.1326L14.3524 56.1477Z" fill="#2C1535"/>
</svg>
