<svg width="119" height="119" viewBox="0 0 119 119" fill="none" xmlns="http://www.w3.org/2000/svg">
<circle cx="59.0586" cy="59.0586" r="59.0586" fill="#E8B8E5"/>
<g clip-path="url(#clip0_1_143)">
<path d="M35.2362 47.0787H52.211V48.42H36.7922V58.5152H51.2916V59.8565H36.7922V70.9401H52.3879V72.2814H35.2362V47.0787ZM53.7317 47.0787H55.5353L63.5276 58.1622L71.6967 47.0787L82.8081 33L64.5531 59.3271L73.96 72.2814H72.0857L63.5276 60.4919L54.9341 72.2814H53.0951L62.5728 59.3271L53.7317 47.0787ZM74.6319 48.42V47.0787H93.9762V48.42H85.0644V72.2814H83.5084V48.42H74.6319ZM14 47.0787H15.945L42.7659 86.9797L31.6821 72.2814L15.6268 48.9848L15.556 72.2814H14V47.0787ZM93.8194 70.5353C93.5015 70.5353 93.2631 70.2904 93.2631 69.974C93.2631 69.6575 93.5015 69.4126 93.8194 69.4126C94.1411 69.4126 94.3757 69.6575 94.3757 69.974C94.3757 70.2904 94.1411 70.5353 93.8194 70.5353ZM95.3484 69.0585H96.181C96.1923 69.5068 96.5216 69.8082 97.006 69.8082C97.5472 69.8082 97.8538 69.4842 97.8538 68.8776V65.0348H98.7015V68.8814C98.7015 69.974 98.0657 70.6031 97.0136 70.6031C96.0258 70.6031 95.3484 69.9928 95.3484 69.0585ZM99.8104 69.0095H100.651C100.723 69.5256 101.23 69.8534 101.96 69.8534C102.641 69.8534 103.141 69.503 103.141 69.0208C103.141 68.6064 102.823 68.3577 102.1 68.1882L101.396 68.0187C100.408 67.7888 99.958 67.3141 99.958 66.5154C99.958 65.5472 100.753 64.903 101.945 64.903C103.054 64.903 103.864 65.5472 103.913 66.4627H103.088C103.008 65.9616 102.569 65.6489 101.934 65.6489C101.264 65.6489 100.817 65.9692 100.817 66.4589C100.817 66.847 101.105 67.0693 101.816 67.235L102.418 67.382C103.538 67.6419 104 68.094 104 68.9115C104 69.9514 103.19 70.6031 101.896 70.6031C100.685 70.6031 99.871 69.9815 99.8104 69.0095Z" fill="#2C1535"/>
</g>
<defs>
<clipPath id="clip0_1_143">
<rect width="90" height="54" fill="white" transform="translate(14 33)"/>
</clipPath>
</defs>
</svg>
