<svg width="119" height="119" viewBox="0 0 119 119" fill="none" xmlns="http://www.w3.org/2000/svg">
<circle cx="59.2042" cy="59.0586" r="59.0586" fill="#E8B8E5"/>
<g clip-path="url(#clip0_1_147)">
<path d="M59.2043 99.3089C58.0321 99.3089 56.938 98.9962 55.9221 98.449L45.5288 92.2727C43.9659 91.4127 44.7474 91.1 45.2162 90.9436C47.3262 90.24 47.7169 90.0837 49.9049 88.8328C50.1394 88.6764 50.452 88.7546 50.6864 88.911L58.6572 93.68C58.9698 93.8363 59.3605 93.8363 59.595 93.68L90.775 75.6203C91.0876 75.4639 91.2439 75.1512 91.2439 74.7603V38.7191C91.2439 38.3282 91.0876 38.0155 90.775 37.8592L59.595 19.8777C59.2824 19.7213 58.8917 19.7213 58.6572 19.8777L27.4772 37.8592C27.1646 38.0155 27.0083 38.4064 27.0083 38.7191V74.7603C27.0083 75.073 27.1646 75.4639 27.4772 75.6203L35.9951 80.5457C40.6056 82.8911 43.497 80.1548 43.497 77.4184V41.8464C43.497 41.3773 43.8878 40.9082 44.4348 40.9082H48.4202C48.8891 40.9082 49.3579 41.2991 49.3579 41.8464V77.4184C49.3579 83.5947 45.9977 87.191 40.1368 87.191C38.3394 87.191 36.9328 87.191 32.9474 85.2365L24.7421 80.5457C22.7103 79.3729 21.46 77.1839 21.46 74.8385V38.7973C21.46 36.4519 22.7103 34.2629 24.7421 33.0902L55.9221 15.0305C57.8758 13.936 60.5327 13.936 62.4864 15.0305L93.6664 33.0902C95.6982 34.2629 96.9485 36.4519 96.9485 38.7973V74.8385C96.9485 77.1839 95.6982 79.3729 93.6664 80.5457L62.4864 98.6053C61.4705 99.0744 60.2983 99.3089 59.2043 99.3089ZM68.8161 74.5258C55.1407 74.5258 52.3275 68.2713 52.3275 62.9551C52.3275 62.486 52.7182 62.0169 53.2652 62.0169H57.3288C57.7976 62.0169 58.1884 62.3296 58.1884 62.7987C58.8135 66.9423 60.6109 68.975 68.8943 68.975C75.4585 68.975 78.2717 67.4895 78.2717 63.9714C78.2717 61.9387 77.4903 60.4533 67.2532 59.4369C58.7354 58.577 53.4215 56.7006 53.4215 49.8989C53.4215 43.5663 58.7354 39.8137 67.644 39.8137C77.6466 39.8137 82.5697 43.2536 83.1949 50.7589C83.1949 50.9935 83.1167 51.228 82.9605 51.4626C82.8042 51.6189 82.5697 51.7753 82.3353 51.7753H78.2717C77.881 51.7753 77.4903 51.4626 77.4121 51.0716C76.4744 46.7717 74.0519 45.3645 67.644 45.3645C60.4546 45.3645 59.595 47.8663 59.595 49.7426C59.595 52.0098 60.6109 52.7134 70.3009 53.9643C79.9128 55.2152 84.4452 57.0134 84.4452 63.7369C84.3671 70.6167 78.7406 74.5258 68.8161 74.5258Z" fill="#2C1535"/>
</g>
<defs>
<clipPath id="clip0_1_147">
<rect width="75.4885" height="85.2575" fill="white" transform="translate(21.46 14.2096)"/>
</clipPath>
</defs>
</svg>
