<svg width="119" height="119" viewBox="0 0 119 119" fill="none" xmlns="http://www.w3.org/2000/svg">
<circle cx="59.6679" cy="59.0586" r="59.0586" fill="#E8B8E5"/>
<path d="M75.0764 19.5382C73.5666 19.7869 72.0569 20.0267 70.556 20.2753C70.627 20.3109 70.6981 20.3464 70.7691 20.3819C72.4565 21.6696 74.5613 22.4156 76.2398 23.6412C81.0622 27.1759 86.1865 33.508 87.5986 40.2664C88.2203 43.2327 87.119 47.7975 86.6483 50.3641C85.8846 54.556 88.1403 58.0906 87.3855 62.5666C87.0657 64.4583 85.2451 68.9343 85.8046 69.405C85.8046 69.3339 85.8046 69.2629 85.8046 69.1918C87.1279 67.8775 87.7762 65.7993 88.7531 64.1386C92.6519 57.4778 95.4405 49.6714 97.3766 41.1013C98.1048 37.8597 98.7709 32.318 97.4831 29.2096C96.8259 27.6377 95.183 26.2167 93.9041 25.2132C89.0462 21.3766 84.1084 19.4849 75.0764 19.5382Z" fill="#2C1535"/>
<path d="M57.9272 20.4885C57.119 20.5595 56.3109 20.6306 55.5116 20.7016C54.0018 21.119 52.492 21.5453 50.9911 21.9627C44.1794 24.9023 40.1474 33.2238 39.73 42.4778C41.2842 41.7052 42.9627 40.8703 44.7833 40.373C53.984 37.8686 55.2451 43.7478 56.4618 50.7904C56.9236 53.4636 57.0036 57.238 56.3553 59.8401C55.8046 62.0426 54.9521 63.9876 54.1439 65.8348C53.4423 67.833 52.7407 69.8313 52.0391 71.8295C52.0746 71.8295 52.1101 71.8295 52.1457 71.8295C53.016 71.5986 53.9219 71.8917 54.5613 72.1492C58.3535 73.6235 57.9272 77.3268 57.9272 82.46C57.9272 91.714 56.7993 104.29 64.0284 106.341C66.1954 106.954 68.7531 106.234 70.4494 105.71C79.6235 102.877 77.8117 91.9272 79.6057 82.0426C80.0675 79.476 79.5169 75.9592 80.6537 74.0497C81.4441 72.7176 82.6519 72.5044 83.913 71.6341C80.0764 65.6572 75.8135 59.2629 73.6022 51.7496C70.9379 42.6998 75.6448 39.0764 84.5435 39.6537C80.4938 29.1297 72.3411 20.5684 57.9272 20.4885Z" fill="#2C1535"/>
<path d="M30.8846 20.6927C29.3393 20.8704 27.794 21.0391 26.2576 21.2167C21.897 22.3091 18.3446 24.8135 16.6839 28.588C11.5151 40.3109 18.8508 62.1315 22.7851 71.3055C24.1261 74.4228 26.6927 80.5063 30.0409 81.2967C31.7727 81.7052 32.8117 80.4263 33.5133 79.7158C36.1066 76.7674 38.6998 73.8277 41.302 70.8793C38.8597 68.0107 35.5648 64.5382 36.5684 58.3571C36.746 56.572 36.9148 54.778 37.0924 52.9929C37.0213 49.7336 36.9503 46.4654 36.8792 43.2061C38.4423 33.0729 39.5791 29.6359 44.5613 23.1084C44.5613 23.0729 44.5613 23.0373 44.5613 23.0018C40.2718 22.2736 36.2842 20.7549 30.8846 20.6927Z" fill="#2C1535"/>
<path d="M89.064 75.5062C87.5631 75.222 86.524 74.3339 85.1741 74.1385C83.3801 75.0977 82.5631 75.2753 82.6519 78.135C87.1279 80.3286 95.6892 77.3002 97.6963 74.8757C95.103 75.151 92.0746 76.0746 89.064 75.5062Z" fill="#2C1535"/>
<path d="M52.5631 74.4583C51.1244 76.0035 49.6856 77.5488 48.2469 79.0852C46.3908 80.2931 43.3357 80.6927 40.9911 81.2966C41.0267 81.3677 41.0622 81.4387 41.0977 81.5098C46.0267 83.2327 50.1386 82.8419 53.6199 79.9289C55.3428 78.4813 56.1688 74.5826 52.5631 74.4583Z" fill="#2C1535"/>
<path d="M83.913 50.7904C84.2327 47.9841 84.5435 45.1777 84.8632 42.3713C81.3819 42.2381 77.7851 42.0782 76.3375 44.2629C75.3073 45.826 75.6714 49.1741 76.2309 50.9947C77.6252 55.524 79.8277 59.4494 82.0213 63.1972C82.5098 64.2185 83.0071 65.2309 83.4956 66.2523C83.5666 66.2167 83.6377 66.1812 83.7087 66.1457C84.135 63.8988 85.1208 61.4654 84.659 58.4636C84.4014 55.9059 84.1616 53.3482 83.913 50.7904ZM79.7478 47.2558C78.5222 46.9183 78.0426 46.6697 77.3322 45.8881C77.3943 45.2842 77.5009 45.2931 77.7496 44.9379C78.318 44.7158 78.6554 44.3073 80.1652 44.2008C81.2132 44.3784 81.5595 44.5471 82.0569 45.2487C81.4174 46.4476 80.9201 46.5009 79.7478 47.2558Z" fill="#2C1535"/>
<path d="M51.302 43.4192C50.3695 42.7442 48.9307 42.6643 47.3055 42.6821C45.9734 43.0284 44.6412 43.3837 43.3091 43.73C42.0835 44.3961 40.8579 45.0622 39.6235 45.7283C39.6945 48.357 39.7656 50.9858 39.8366 53.6146C39.4636 56.1457 38.8331 59.2274 39.3126 61.8206C40.2185 66.8473 43.5755 71.1368 49.4014 71.1989C49.9254 69.5471 50.4494 67.9041 50.9823 66.2522C51.8704 64.0941 52.9805 62.016 53.611 59.5204C54.7123 55.1776 53.8508 45.2753 51.302 43.4192ZM51.2398 46.9449C50.2629 49.2451 46.4085 48.286 46.2931 45.7904C46.3286 45.7194 46.3641 45.6483 46.3997 45.5773C46.7194 45.3997 47.0302 45.2309 47.3499 45.0533C49.3304 44.9911 50.2984 45.3286 51.3464 46.1013C51.302 46.3854 51.2753 46.6608 51.2398 46.9449Z" fill="#2C1535"/>
</svg>
