<svg width="119" height="119" viewBox="0 0 119 119" fill="none" xmlns="http://www.w3.org/2000/svg">
<circle cx="59.1314" cy="59.0586" r="59.0586" fill="#E8B8E5"/>
<g clip-path="url(#clip0_1_145)">
<path d="M100.428 59.0669C100.428 53.6456 93.6498 48.5079 83.2577 45.3219C85.6558 34.7128 84.59 26.2723 79.8935 23.57C78.811 22.9361 77.5453 22.6358 76.163 22.6358V26.3557C76.9291 26.3557 77.5453 26.5058 78.0616 26.7894C80.3265 28.0905 81.3091 33.0447 80.543 39.4168C80.3598 40.9848 80.0601 42.6362 79.6937 44.321C76.4295 43.5203 72.8655 42.9031 69.1183 42.5028C66.87 39.4168 64.5384 36.6144 62.1902 34.1623C67.6194 29.108 72.7156 26.339 76.1796 26.339V22.6191C71.5998 22.6191 65.6043 25.8886 59.5422 31.5601C53.4801 25.922 47.4846 22.6859 42.9047 22.6859V26.4057C46.3521 26.4057 51.4649 29.1581 56.8942 34.179C54.5626 36.6311 52.231 39.4168 50.016 42.5028C46.2522 42.9031 42.6882 43.5203 39.424 44.3377C39.0409 42.6696 38.7578 41.0516 38.558 39.5002C37.7752 33.1281 38.7412 28.1739 40.9895 26.8561C41.4891 26.5558 42.1386 26.4224 42.9047 26.4224V22.7025C41.5057 22.7025 40.24 23.0028 39.1409 23.6367C34.4611 26.339 33.4118 34.7628 35.8267 45.3385C25.4678 48.5413 18.7229 53.6623 18.7229 59.0669C18.7229 64.4882 25.5011 69.626 35.8933 72.812C33.4951 83.4211 34.561 91.8616 39.2574 94.5639C40.34 95.1978 41.6057 95.4981 43.0046 95.4981C47.5845 95.4981 53.58 92.2286 59.6421 86.5571C65.7042 92.1952 71.6997 95.4313 76.2796 95.4313C77.6785 95.4313 78.9442 95.1311 80.0434 94.4972C84.7232 91.7949 85.7724 83.371 83.3576 72.7953C93.6831 69.6093 100.428 64.4716 100.428 59.0669V59.0669ZM78.7444 47.9408C78.1282 50.0926 77.3621 52.3112 76.4961 54.5297C75.8132 53.1953 75.0971 51.8608 74.3144 50.5263C73.5483 49.1918 72.7322 47.8907 71.9162 46.623C74.2811 46.9733 76.5627 47.407 78.7444 47.9408ZM71.1168 65.7059C69.8178 67.9579 68.4854 70.093 67.1031 72.0781C64.6217 72.2949 62.1069 72.4117 59.5755 72.4117C57.0607 72.4117 54.5459 72.2949 52.0811 72.0947C50.6988 70.1097 49.3498 67.9912 48.0508 65.756C46.7851 63.5708 45.636 61.3522 44.5868 59.117C45.6193 56.8817 46.7851 54.6465 48.0342 52.4613C49.3332 50.2094 50.6655 48.0742 52.0478 46.0892C54.5293 45.8723 57.0441 45.7556 59.5755 45.7556C62.0903 45.7556 64.605 45.8723 67.0698 46.0725C68.4521 48.0575 69.8011 50.176 71.1001 52.4113C72.3659 54.5965 73.515 56.815 74.5642 59.0503C73.515 61.2855 72.3658 63.5207 71.1168 65.7059ZM76.4961 63.5374C77.3954 65.7727 78.1615 68.0079 78.7943 70.1764C76.6127 70.7102 74.3144 71.1606 71.9328 71.5109C72.7489 70.2265 73.565 68.9087 74.331 67.5575C75.0971 66.2231 75.8132 64.8719 76.4961 63.5374ZM59.6088 81.336C58.06 79.7346 56.5111 77.9497 54.9789 75.9981C56.4778 76.0648 58.01 76.1148 59.5588 76.1148C61.1243 76.1148 62.6731 76.0815 64.1887 75.9981C62.6898 77.9497 61.141 79.7346 59.6088 81.336ZM47.2181 71.5109C44.8532 71.1606 42.5716 70.7269 40.3899 70.1931C41.0061 68.0413 41.7722 65.8227 42.6382 63.6042C43.321 64.9386 44.0372 66.2731 44.8199 67.6076C45.6027 68.942 46.4021 70.2432 47.2181 71.5109ZM59.5255 36.7979C61.0744 38.3993 62.6232 40.1841 64.1554 42.1358C62.6565 42.0691 61.1243 42.019 59.5755 42.019C58.01 42.019 56.4612 42.0524 54.9456 42.1358C56.4445 40.1841 57.9933 38.3993 59.5255 36.7979ZM47.2015 46.623C46.3854 47.9074 45.5694 49.2252 44.8033 50.5764C44.0372 51.9108 43.321 53.2453 42.6382 54.5798C41.7389 52.3445 40.9728 50.1093 40.34 47.9408C42.5217 47.4237 44.8199 46.9733 47.2015 46.623V46.623ZM32.1295 67.5075C26.2339 64.9887 22.4201 61.6858 22.4201 59.0669C22.4201 56.448 26.2339 53.1285 32.1295 50.6264C33.5617 50.0092 35.1272 49.4587 36.7427 48.9416C37.692 52.2111 38.941 55.614 40.4898 59.1003C38.9577 62.5699 37.7253 65.9562 36.7926 69.2089C35.1439 68.6918 33.5784 68.1247 32.1295 67.5075ZM41.0894 91.3445C38.8244 90.0434 37.8418 85.0892 38.6079 78.7171C38.7911 77.1491 39.0909 75.4976 39.4573 73.8129C42.7215 74.6136 46.2855 75.2308 50.0327 75.6311C52.281 78.7171 54.6125 81.5195 56.9608 83.9716C51.5315 89.0259 46.4354 91.7949 42.9713 91.7949C42.2219 91.7782 41.589 91.6281 41.0894 91.3445V91.3445ZM80.593 78.6337C81.3757 85.0058 80.4098 89.96 78.1615 91.2778C77.6619 91.5781 77.0123 91.7115 76.2463 91.7115C72.7989 91.7115 67.686 88.9591 62.2568 83.9382C64.5884 81.4861 66.92 78.7004 69.135 75.6144C72.8988 75.2141 76.4628 74.5969 79.727 73.7795C80.11 75.4643 80.4098 77.0823 80.593 78.6337V78.6337ZM87.0048 67.5075C85.5726 68.1247 84.0071 68.6752 82.3916 69.1923C81.4423 65.9228 80.1933 62.5199 78.6445 59.0336C80.1766 55.564 81.409 52.1777 82.3417 48.9249C83.9904 49.4421 85.5559 50.0092 87.0215 50.6264C92.917 53.1452 96.7308 56.448 96.7308 59.0669C96.7142 61.6858 92.9004 65.0054 87.0048 67.5075V67.5075Z" fill="#2C1535"/>
<path d="M59.5588 66.6901C63.7622 66.6901 67.1698 63.2771 67.1698 59.067C67.1698 54.8568 63.7622 51.4438 59.5588 51.4438C55.3554 51.4438 51.9479 54.8568 51.9479 59.067C51.9479 63.2771 55.3554 66.6901 59.5588 66.6901Z" fill="#2C1535"/>
</g>
<defs>
<clipPath id="clip0_1_145">
<rect width="81.7052" height="93.2504" fill="white" transform="translate(18.7229 12.4334)"/>
</clipPath>
</defs>
</svg>
