<svg width="119" height="119" viewBox="0 0 119 119" fill="none" xmlns="http://www.w3.org/2000/svg">
<circle cx="59.9414" cy="59.0586" r="59.0586" fill="#E8B8E5"/>
<g clip-path="url(#clip0_1_149)">
<path fill-rule="evenodd" clip-rule="evenodd" d="M68.1922 78.2386V54.1264C68.1922 53.714 68.0283 53.3186 67.7367 53.0271C67.4451 52.7355 67.0497 52.5718 66.6373 52.5718H42.5532V27.6825H91.499C91.7032 27.6825 91.9055 27.7226 92.0942 27.8008C92.2828 27.8789 92.4543 27.9934 92.5987 28.1378C92.7431 28.2822 92.8577 28.4536 92.9359 28.6423C93.014 28.831 93.0542 29.0332 93.0542 29.2374V78.2386H68.1922Z" fill="#2C1535"/>
<path opacity="0.405" fill-rule="evenodd" clip-rule="evenodd" d="M42.5532 27.6825V52.5718H19.5668C19.4131 52.5717 19.2628 52.5261 19.135 52.4407C19.0072 52.3553 18.9075 52.2339 18.8487 52.0919C18.7898 51.9499 18.7743 51.7936 18.8043 51.6428C18.8342 51.492 18.9081 51.3535 19.0167 51.2447L42.5532 27.6825ZM68.1923 101.249V78.2387H93.0543L69.5196 101.799C69.4109 101.907 69.2724 101.981 69.1216 102.011C68.9708 102.041 68.8145 102.026 68.6725 101.967C68.5304 101.908 68.409 101.809 68.3235 101.681C68.238 101.553 68.1924 101.403 68.1923 101.249V101.249ZM42.5532 52.5718H67.4146C67.6208 52.5718 67.8186 52.6537 67.9644 52.7994C68.1102 52.9452 68.1922 53.1429 68.1923 53.3491V78.2387H44.1082C43.904 78.2387 43.7018 78.1984 43.5131 78.1203C43.3245 78.0421 43.1531 77.9276 43.0087 77.7832C42.8643 77.6388 42.7497 77.4674 42.6716 77.2788C42.5935 77.0901 42.5532 76.8879 42.5532 76.6837V52.5718Z" fill="#2C1535"/>
</g>
<defs>
<clipPath id="clip0_1_149">
<rect width="74.6004" height="74.6004" fill="white" transform="translate(18.6448 27.5311)"/>
</clipPath>
</defs>
</svg>
