<svg width="119" height="119" viewBox="0 0 119 119" fill="none" xmlns="http://www.w3.org/2000/svg">
<circle cx="59.595" cy="59.0586" r="59.0586" fill="#E8B8E5"/>
<g clip-path="url(#clip0_1_144)">
<path d="M92.0245 18.6501H26.2774C21.8707 18.6501 18.2984 22.2224 18.2984 26.6291V92.3762C18.2984 96.7829 21.8707 100.355 26.2774 100.355H92.0245C96.4312 100.355 100.004 96.7829 100.004 92.3762V26.6291C100.004 22.2224 96.4312 18.6501 92.0245 18.6501Z" fill="#2C1535"/>
<path d="M92.0245 18.6501H26.2774C21.8707 18.6501 18.2984 22.2224 18.2984 26.6291V92.3762C18.2984 96.7829 21.8707 100.355 26.2774 100.355H92.0245C96.4312 100.355 100.004 96.7829 100.004 92.3762V26.6291C100.004 22.2224 96.4312 18.6501 92.0245 18.6501Z" fill="#2C1535"/>
<path fill-rule="evenodd" clip-rule="evenodd" d="M68.8757 83.6669V91.6557C70.1743 92.3215 71.7103 92.8206 73.4835 93.1535C75.2568 93.4864 77.1256 93.6528 79.0904 93.6528C81.0052 93.6528 82.8241 93.4698 84.5474 93.1036C86.2707 92.7375 87.7818 92.1341 89.0804 91.2936C90.3791 90.4533 91.4073 89.3547 92.1648 87.9983C92.9223 86.6418 93.3012 84.9651 93.3012 82.968C93.3012 81.5199 93.0848 80.251 92.6519 79.1609C92.2189 78.0708 91.5946 77.1013 90.7787 76.2525C89.9629 75.4037 88.9847 74.6422 87.8442 73.9681C86.7037 73.2941 85.4174 72.6575 83.9855 72.0584C82.9366 71.6256 81.9959 71.2055 81.1633 70.7977C80.3308 70.3898 79.6232 69.9738 79.0404 69.5495C78.4577 69.125 78.0081 68.6756 77.6918 68.2014C77.3755 67.7269 77.2172 67.1903 77.2172 66.591C77.2172 66.0419 77.3588 65.5467 77.6419 65.1057C77.925 64.6646 78.3246 64.2861 78.8406 63.9698C79.3569 63.6536 79.9895 63.408 80.7387 63.2333C81.4881 63.0586 82.3205 62.9713 83.2363 62.9713C83.9022 62.9713 84.6057 63.0212 85.3466 63.121C86.0875 63.2209 86.8326 63.3749 87.582 63.5828C88.3312 63.7909 89.0595 64.0531 89.7673 64.3692C90.4749 64.6855 91.1283 65.0516 91.7277 65.4678V58.0032C90.5124 57.5372 89.1845 57.1919 87.7443 56.9672C86.3041 56.7425 84.6514 56.6302 82.7868 56.6302C80.8885 56.6302 79.0904 56.8341 77.3921 57.2419C75.6939 57.6496 74.1996 58.2862 72.909 59.1516C71.6187 60.0171 70.599 61.1197 69.8497 62.4595C69.1005 63.7992 68.7258 65.401 68.7258 67.2651C68.7258 69.6451 69.4126 71.6756 70.7863 73.3566C72.1598 75.0375 74.2452 76.4604 77.0425 77.6255C78.1414 78.0749 79.1654 78.5158 80.1144 78.9486C81.0634 79.3814 81.8835 79.8308 82.5744 80.2968C83.2653 80.7627 83.8106 81.2704 84.2104 81.8196C84.61 82.3687 84.8098 82.9929 84.8098 83.692C84.8098 84.2079 84.6848 84.6863 84.4351 85.1274C84.1853 85.5685 83.8065 85.9512 83.2987 86.2758C82.7909 86.6003 82.1582 86.8541 81.4006 87.0371C80.6429 87.2203 79.7565 87.3118 78.7408 87.3118C77.0091 87.3118 75.2943 87.0081 73.5959 86.4005C71.8976 85.7932 70.3242 84.882 68.8757 83.6669V83.6669ZM55.4455 63.984H65.6938V57.4281H37.1289V63.984H47.327V93.1741H55.4455V63.984Z" fill="#E8B8E5"/>
</g>
<defs>
<clipPath id="clip0_1_144">
<rect width="81.7052" height="81.7052" fill="white" transform="translate(18.2984 18.6501)"/>
</clipPath>
</defs>
</svg>
